<svg width="40" height="40" viewBox="0 0 40 40" fill="none" xmlns="http://www.w3.org/2000/svg">
<path d="M32.5 37.5H30V33.75C29.998 32.093 29.3389 30.5044 28.1672 29.3328C26.9956 28.1611 25.407 27.502 23.75 27.5H16.25C14.593 27.502 13.0044 28.1611 11.8328 29.3328C10.6611 30.5044 10.002 32.093 10 33.75V37.5H7.5V33.75C7.50331 31.4304 8.42624 29.2067 10.0665 27.5665C11.7067 25.9262 13.9304 25.0033 16.25 25H23.75C26.0696 25.0033 28.2933 25.9262 29.9335 27.5665C31.5738 29.2067 32.4967 31.4304 32.5 33.75V37.5ZM6.25 7.5C5.91848 7.5 5.60054 7.6317 5.36612 7.86612C5.1317 8.10054 5 8.41848 5 8.75V20H7.5V8.75C7.5 8.41848 7.3683 8.10054 7.13388 7.86612C6.89946 7.6317 6.58152 7.5 6.25 7.5Z" fill="white"/>
<path d="M5 3V5.5H11.25V14.25C11.25 16.5706 12.1719 18.7962 13.8128 20.4372C15.4538 22.0781 17.6794 23 20 23C22.3206 23 24.5462 22.0781 26.1872 20.4372C27.8281 18.7962 28.75 16.5706 28.75 14.25V5.5H35V3H5ZM13.75 5.5H26.25V9.25H13.75V5.5ZM20 20.5C18.3424 20.5 16.7527 19.8415 15.5806 18.6694C14.4085 17.4973 13.75 15.9076 13.75 14.25V11.75H26.25V14.25C26.25 15.9076 25.5915 17.4973 24.4194 18.6694C23.2473 19.8415 21.6576 20.5 20 20.5Z" fill="white"/>
</svg>
