<svg width="110" height="100" viewBox="0 0 110 100" fill="none" xmlns="http://www.w3.org/2000/svg">
<path d="M49.5901 92.8674H27.9301V87.0721L9.52013 65.8257L0.0501298 34.8966C-0.10987 34.3706 0.12013 33.791 0.64013 33.5057C3.10013 32.1595 6.31013 32.9262 7.69013 35.173L18.1801 52.3182L26.9301 65.2372C27.1501 65.0767 22.5901 56.2857 20.6901 52.6748C20.2001 51.7386 20.8101 50.642 21.9401 50.4102C24.5301 49.8841 27.3401 50.6955 29.0601 52.7105C31.8101 55.938 35.1101 59.7005 36.5801 61.0111C38.7501 62.9458 47.2701 67.3592 48.4901 71.6299C50.0101 76.9348 49.5701 92.8763 49.5701 92.8763L49.5901 92.8674Z" fill="#F5F7E9"/>
<path d="M68.0801 0C62.8301 0 58.0701 1.89907 54.5401 4.98395C51.0101 1.90799 46.2501 0 41.0001 0C30.1201 0 21.3101 8.1045 21.3101 18.1081C21.3101 38.4719 54.5401 56.1252 54.5401 56.1252C54.5401 56.1252 87.7701 38.4719 87.7701 18.1081C87.7701 8.11341 78.9501 0 68.0801 0Z" fill="url(#paint0_linear_120_2897)"/>
<path opacity="0.5" d="M68.0801 7.13257C62.8301 7.13257 58.0701 9.03164 54.5401 12.1165C51.0101 9.04056 46.2501 7.13257 41.0001 7.13257C30.1201 7.13257 21.3101 15.2371 21.3101 25.2406C21.3101 45.6044 54.5401 63.2578 54.5401 63.2578C54.5401 63.2578 87.7701 45.6044 87.7701 25.2406C87.7701 15.246 78.9501 7.13257 68.0801 7.13257Z" fill="#B4E127"/>
<path d="M37.7099 16.209C33.2099 18.4558 30.1499 22.8424 30.1499 27.8887C30.1499 29.5649 30.4599 31.2233 31.0099 32.837" stroke="white" stroke-linejoin="round"/>
<path d="M44.6099 14.604C43.3299 14.604 42.0899 14.7556 40.8999 15.0409" stroke="white" stroke-width="3" stroke-miterlimit="10" stroke-dasharray="3 3"/>
<path d="M51.9302 92.8674H24.9302V100H51.9302V92.8674Z" fill="url(#paint1_linear_120_2897)"/>
<path d="M60.2703 92.8675H81.9303V87.0722L100.34 65.8258L109.8 34.8878C109.96 34.3618 109.73 33.7823 109.21 33.497C106.75 32.1507 103.54 32.9174 102.16 35.1642L91.6703 52.3094L81.9203 66.12C81.6803 65.9417 87.3503 55.7152 89.2803 52.247C89.6503 51.5783 89.2703 50.758 88.4603 50.5351C85.7303 49.7594 82.6203 50.5351 80.7703 52.7017C78.0203 55.9292 74.7203 59.6917 73.2503 61.0023C71.0803 62.9371 62.5603 67.3504 61.3403 71.6211C59.8203 76.926 60.2603 92.8675 60.2603 92.8675H60.2703Z" fill="#F5F7E9"/>
<path d="M57.9199 100H84.9199V92.8673H57.9199V100Z" fill="url(#paint2_linear_120_2897)"/>
<defs>
<linearGradient id="paint0_linear_120_2897" x1="54.5401" y1="-11.5638" x2="54.5401" y2="44.9002" gradientUnits="userSpaceOnUse">
<stop stop-color="white"/>
<stop offset="1" stop-color="#F5F7E9"/>
</linearGradient>
<linearGradient id="paint1_linear_120_2897" x1="16.0302" y1="47.8692" x2="49.9129" y2="140.303" gradientUnits="userSpaceOnUse">
<stop stop-color="#B8C4DB"/>
<stop offset="1" stop-color="#004AFF"/>
</linearGradient>
<linearGradient id="paint2_linear_120_2897" x1="44.2599" y1="37.5178" x2="78.1426" y2="129.952" gradientUnits="userSpaceOnUse">
<stop stop-color="#B8C4DB"/>
<stop offset="1" stop-color="#004AFF"/>
</linearGradient>
</defs>
</svg>
