<svg width="103" height="100" viewBox="0 0 103 100" fill="none" xmlns="http://www.w3.org/2000/svg">
<path opacity="0.5" d="M85.742 12.4809C83.5087 6.7357 87.0657 0 87.0657 0C87.0657 0 94.2337 2.57541 96.4579 8.32057C98.6911 14.0657 95.1342 20.8015 95.1342 20.8015C95.1342 20.8015 87.9662 18.226 85.742 12.4809Z" fill="#B4E127"/>
<path d="M49.4609 44.4216C55.2601 45.3221 61.2844 45.6553 67.5159 45.4212C65.0035 44.2595 62.5631 43.0078 60.2218 41.6481C50.2083 35.8579 41.7707 28.3027 34.9629 18.9646L34.5307 19.703C30.9557 25.7273 29.4249 32.355 29.7761 38.8115C36.0345 41.486 42.5991 43.359 49.4699 44.4216H49.4609Z" fill="url(#paint0_linear_120_2872)"/>
<path d="M96.5478 27.1318L90.3794 26.4744C88.1462 23.4758 84.6523 21.4587 80.7531 21.2246C73.216 20.7743 68.0561 26.8166 67.0115 34.1557C66.3542 38.7752 64.0759 42.1881 60.6811 44.8806L30.3073 67.6181L26.4352 71.3281C25.0124 72.6969 23.2475 73.6604 21.3294 74.1287L0.0146635 79.2975C-0.489614 88.2755 12.1173 99.0814 21.6806 99.9999L31.3969 88.7978C33.27 86.6366 36.0885 85.529 38.9341 85.8441C64.7153 88.7527 75.5302 86.0242 83.7157 77.0193C92.7207 67.1138 90.7486 53.7955 89.8391 49.9504C89.0827 46.7806 89.578 43.4398 91.2079 40.6122L91.2709 40.5042C92.5766 38.2529 93.1619 35.5514 92.8558 32.6969L96.5658 27.1228L96.5478 27.1318Z" fill="url(#paint1_linear_120_2872)"/>
<path opacity="0.5" d="M45.3364 72.1478C26.516 68.861 14.4944 51.6705 17.5651 33.2554L17.7092 32.4089C27.4435 38.6494 38.0334 42.6386 49.4697 44.4126C55.9893 45.4211 62.779 45.7183 69.8389 45.304C77.6011 44.8448 81.6174 51.1843 77.9073 59.8381C74.5755 67.6093 62.6979 75.1645 45.3454 72.1388L45.3364 72.1478Z" fill="#B4E127"/>
<path d="M16.7012 50.6079L32.9101 52.4089" stroke="white" stroke-linejoin="round"/>
<path d="M23.8237 61.7109H36.4307" stroke="white" stroke-linejoin="round"/>
<path d="M2.48193 90.779L14.1884 85.376" stroke="white" stroke-linejoin="round"/>
<path d="M12.0542 97.5237L18.3577 91.2202" stroke="white" stroke-linejoin="round"/>
<path d="M81.9054 30.6439C82.6514 30.6439 83.2562 30.0391 83.2562 29.2931C83.2562 28.5471 82.6514 27.9424 81.9054 27.9424C81.1594 27.9424 80.5547 28.5471 80.5547 29.2931C80.5547 30.0391 81.1594 30.6439 81.9054 30.6439Z" fill="#5A6172"/>
<path d="M101.698 37.3347L91.811 12.1838" stroke="#5A6172" stroke-linejoin="round"/>
<defs>
<linearGradient id="paint0_linear_120_2872" x1="26.2371" y1="6.89796" x2="49.8481" y2="43.9894" gradientUnits="userSpaceOnUse">
<stop stop-color="#B8C4DB"/>
<stop offset="1" stop-color="#437AFF"/>
</linearGradient>
<linearGradient id="paint1_linear_120_2872" x1="-13.6819" y1="87.357" x2="146.336" y2="25.2768" gradientUnits="userSpaceOnUse">
<stop stop-color="white"/>
<stop offset="1" stop-color="#F5F7E9"/>
</linearGradient>
</defs>
</svg>
