<svg width="114" height="100" viewBox="0 0 114 100" fill="none" xmlns="http://www.w3.org/2000/svg">
<path d="M84.9399 34H3.93994V100H84.9399V34Z" fill="url(#paint0_linear_120_2907)"/>
<path d="M44.47 0L88.94 34H0L44.47 0Z" fill="url(#paint1_linear_120_2907)"/>
<path d="M45.9399 52H17.9399V81H45.9399V52Z" fill="white"/>
<path d="M44.4399 26C47.4775 26 49.9399 23.5376 49.9399 20.5C49.9399 17.4624 47.4775 15 44.4399 15C41.4024 15 38.9399 17.4624 38.9399 20.5C38.9399 23.5376 41.4024 26 44.4399 26Z" fill="white"/>
<path opacity="0.5" d="M84.9399 100C100.956 100 113.94 87.0163 113.94 71C113.94 54.9837 100.956 42 84.9399 42C68.9237 42 55.9399 54.9837 55.9399 71C55.9399 87.0163 68.9237 100 84.9399 100Z" fill="#B4E127"/>
<path d="M97.7 62.5101C94.71 59.5201 89.87 59.5201 86.89 62.5101L85.44 63.9601L83.99 62.5101C81 59.5201 76.16 59.5201 73.18 62.5101C70.19 65.5001 70.19 70.3401 73.18 73.3201L85.46 85.5901L97.7 73.3201C100.69 70.3301 100.69 65.4901 97.7 62.5101Z" fill="white"/>
<path d="M33.4399 81V52" stroke="#81C5FB" stroke-linejoin="round"/>
<path d="M17.9399 66.5H32.9399" stroke="#80C5FA" stroke-linejoin="round"/>
<defs>
<linearGradient id="paint0_linear_120_2907" x1="44.4399" y1="100.77" x2="44.4399" y2="27.74" gradientUnits="userSpaceOnUse">
<stop stop-color="white"/>
<stop offset="1" stop-color="#B8C4DB"/>
</linearGradient>
<linearGradient id="paint1_linear_120_2907" x1="-16.44" y1="-4.71" x2="50.29" y2="32.74" gradientUnits="userSpaceOnUse">
<stop stop-color="#B8C4DB"/>
<stop offset="1" stop-color="#437AFF"/>
</linearGradient>
</defs>
</svg>
