<svg width="90" height="102" viewBox="0 0 90 102" fill="none" xmlns="http://www.w3.org/2000/svg">
<path d="M56.5026 15.1746L53.3456 20.0927C55.1733 17.2515 54.0186 13.3552 50.6955 12.0509C48.253 11.0955 45.4783 12.1755 44.0659 14.377L21.8096 48.0067L16.5092 34.9137C13.9172 28.8158 11.0428 26.1241 5.12767 27.7857C3.27505 28.3091 2.17842 30.2115 2.66858 32.0725C4.53781 39.1506 8.88275 55.5916 10.8517 63.0436C11.4914 65.4612 10.4861 66.8818 9.13198 68.9919L6.44859 74.3504L34.9108 93.3003L39.0065 87.0363C39.7542 85.8649 42.0222 85.4329 43.2185 84.7185L51.5678 79.7504C54.0601 78.2634 56.1786 76.2197 57.7488 73.7772L77.4879 43.022C78.9002 40.8205 78.7257 37.8463 76.8399 36.0269C74.2728 33.5429 70.2518 34.1245 68.4241 36.9657L71.5811 32.0475C72.9934 29.846 72.8189 26.8718 70.9331 25.0524C68.366 22.5684 64.3451 23.15 62.5174 25.9912L65.7906 20.8986C67.6183 18.0573 66.4635 14.161 63.1405 12.8567C60.698 11.9013 57.9232 12.9813 56.5109 15.1829L56.5026 15.1746Z" fill="url(#paint0_linear_120_2883)"/>
<path d="M45.2954 33.0693L55.2647 16.4539" stroke="#89A230" stroke-linejoin="round"/>
<path d="M57.375 34.7724L66.0649 21.4385" stroke="#89A230" stroke-linejoin="round"/>
<path d="M63.5723 43.8694L71.88 33.0693" stroke="#89A230" stroke-linejoin="round"/>
<path d="M4.57668 72.8586L0 79.9902L32.6098 100.917L37.1865 93.7857L4.57668 72.8586Z" fill="url(#paint1_linear_120_2883)"/>
<path opacity="0.72" d="M47.4054 40.7209L49.4823 44.127C48.286 42.1581 49.125 39.5162 51.418 38.6855C53.0961 38.0707 54.9737 38.8516 55.9042 40.3802L70.559 63.6668L74.3805 54.819C76.2497 50.7067 78.2436 48.904 82.2562 50.1335C83.5107 50.5157 84.2252 51.8366 83.8679 53.0994C82.4805 57.9012 79.2571 69.0419 77.8033 74.0929C77.3297 75.7379 77.5624 77.4908 78.4513 78.953L80.063 81.6031L59.6094 94.073L57.3497 90.3678C56.8595 89.5619 56.1783 88.8724 55.3808 88.3739L49.7647 84.8514C48.0866 83.7964 46.6743 82.3674 45.6441 80.681L32.6675 59.3883C31.737 57.8597 31.9032 55.8326 33.2158 54.628C35.0102 52.9747 37.7435 53.4317 38.9398 55.4006L36.8629 51.9944C35.9324 50.4658 36.0986 48.447 37.4112 47.2341C39.2056 45.5809 41.9389 46.0378 43.1352 48.0067L40.9835 44.4759C39.7872 42.507 40.6263 39.8652 42.9192 39.0344C44.5974 38.4196 46.4749 39.2005 47.4054 40.7292V40.7209Z" fill="#BEE73D"/>
<path d="M57.7153 94.8039L61.8027 101.5L85.9034 86.9282L81.816 80.2322L57.7153 94.8039Z" fill="url(#paint2_linear_120_2883)"/>
<path d="M59.5013 59.7869L48.6182 42.2078" stroke="#5A6172" stroke-linejoin="round"/>
<path d="M53.1544 63.6499L41.9722 46.3616" stroke="#5A6172" stroke-linejoin="round"/>
<path d="M46.8073 67.5214L37.8184 53.8386" stroke="#5A6172" stroke-linejoin="round"/>
<path d="M27.4336 14.1859C33.6312 6.4514 43.1601 1.5 53.8438 1.5C72.0377 1.5 86.867 15.864 87.6313 33.8669" stroke="#5A6172" stroke-width="3" stroke-miterlimit="10" stroke-dasharray="3 3"/>
<defs>
<linearGradient id="paint0_linear_120_2883" x1="-2.99728" y1="72.0409" x2="88.4208" y2="26.2238" gradientUnits="userSpaceOnUse">
<stop stop-color="white"/>
<stop offset="1" stop-color="#F5F7E9"/>
</linearGradient>
<linearGradient id="paint1_linear_120_2883" x1="23.7402" y1="59.6478" x2="14.4023" y2="109.07" gradientUnits="userSpaceOnUse">
<stop stop-color="#B8C4DB"/>
<stop offset="1" stop-color="#437AFF"/>
</linearGradient>
<linearGradient id="paint2_linear_120_2883" x1="32.2688" y1="71.9245" x2="83.1785" y2="96.3159" gradientUnits="userSpaceOnUse">
<stop stop-color="#B8C4DB"/>
<stop offset="1" stop-color="#437AFF"/>
</linearGradient>
</defs>
</svg>
