<svg width="40" height="40" viewBox="0 0 40 40" fill="none" xmlns="http://www.w3.org/2000/svg">
<path d="M26.6692 28.334L27.0192 28.684C27.6342 29.299 27.9409 29.6057 28.3125 29.584C28.6842 29.564 28.9559 29.2257 29.4992 28.5457L31.6692 25.834M26.9542 13.184V15.834M26.9542 13.184C26.9542 11.9273 28.0109 10.909 29.3125 10.909C30.6125 10.909 31.6692 11.9273 31.6692 13.1823V15.834M26.9542 13.184V8.63565C26.9542 7.38065 25.8992 6.36232 24.5975 6.36232C23.2959 6.36232 22.2392 7.37898 22.2392 8.63565M22.2392 8.63565V15.834M22.2392 8.63565V5.60732C22.2392 4.35065 21.1859 3.33398 19.8825 3.33398C18.5792 3.33398 17.5259 4.35065 17.5259 5.60732V10.1507M17.5259 10.1507C17.5259 8.89565 16.4692 7.87732 15.1675 7.87732C13.8675 7.87732 12.8109 8.89398 12.8109 10.1507V21.0623C12.8109 21.7557 11.9225 22.084 11.4392 21.5707L7.62252 17.5057C7.29806 17.1296 6.86316 16.8656 6.37983 16.7513C5.89649 16.637 5.3894 16.6782 4.93086 16.869C3.25086 17.564 2.85586 20.0157 3.94752 21.429C5.81752 23.849 7.73086 27.1507 9.27752 30.0623C11.3775 34.0173 15.5192 36.6673 20.1225 36.6673M17.5259 10.1507V15.834M21.6692 25.7573V26.4007C21.6692 28.404 21.6692 29.4057 21.9159 30.3223C22.224 31.4593 22.804 32.5043 23.6059 33.3673C24.2559 34.0707 25.1159 34.6173 26.8342 35.7123C27.6025 36.2023 27.9875 36.4473 28.3975 36.5623C28.9025 36.7023 29.4375 36.7023 29.9425 36.5623C30.3509 36.4473 30.7359 36.2023 31.5042 35.7123C33.2225 34.6173 34.0825 34.0707 34.7325 33.3673C35.5343 32.5043 36.1143 31.4593 36.4225 30.3223C36.6692 29.4057 36.6692 28.4056 36.6692 26.4007V25.7573C36.6692 24.5107 36.6692 23.8873 36.4325 23.3607C36.284 23.0356 36.0754 22.7415 35.8175 22.494C35.3959 22.094 34.7975 21.874 33.6009 21.4356L31.1442 20.5357C30.1675 20.179 29.6792 20.0007 29.1692 20.0007C28.6592 20.0007 28.1709 20.179 27.1942 20.5373L24.7375 21.4373C23.5409 21.874 22.9425 22.0923 22.5209 22.494C22.2624 22.7414 22.0532 23.0354 21.9042 23.3607C21.6692 23.8873 21.6692 24.5107 21.6692 25.7573Z" stroke="white" stroke-width="2" stroke-linecap="round" stroke-linejoin="round"/>
</svg>
