<svg width="109" height="100" viewBox="0 0 109 100" fill="none" xmlns="http://www.w3.org/2000/svg">
<g clip-path="url(#clip0_120_2929)">
<path d="M100.28 50C100.28 77.6196 77.8369 100 50.14 100C36.0027 100 23.2279 94.163 14.1155 84.7826C5.3846 75.7826 0 63.5109 0 50C0 41.7826 1.9947 34.0217 5.5154 27.1739C13.8321 11.0326 30.6944 0 50.14 0C77.8369 0 100.28 22.3804 100.28 50Z" fill="url(#paint0_linear_120_2929)"/>
<path d="M46.87 64.1304C46.87 66.239 46.0198 68.1304 44.6355 69.5108C43.2512 70.8912 41.3546 71.739 39.24 71.739H37.06C33.4521 71.739 30.52 74.663 30.52 78.2608C30.52 80.0651 29.7897 81.6956 28.6016 82.8695C27.4244 84.0543 25.7894 84.7825 23.98 84.7825H14.1155C5.3846 75.7825 0 63.5108 0 49.9999C0 41.7825 1.9947 34.0217 5.5154 27.1738H23.435C27.3481 27.1738 30.52 30.3369 30.52 34.239C30.52 36.1956 29.7243 37.9564 28.449 39.239C27.1628 40.5108 25.397 41.3043 23.435 41.3043H20.71C16.4917 41.3043 13.08 44.7064 13.08 48.913C13.08 51.0217 13.9302 52.913 15.3145 54.2934C16.6988 55.6738 18.5954 56.5217 20.71 56.5217H39.24C43.4583 56.5217 46.87 59.9238 46.87 64.1304Z" fill="url(#paint1_linear_120_2929)"/>
<path opacity="0.5" d="M50.1396 30.5109V67.424C50.1396 76.2935 54.892 84.5653 62.5329 89.0109L79.5696 98.9131L96.6063 89.0109C104.258 84.5653 109 76.2935 109 67.424V30.5109C97.3148 31.3153 87.4285 29.0979 79.5696 23.9131C71.7107 29.0979 61.8353 31.3153 50.1396 30.5109Z" fill="#B4E127"/>
<path d="M103.113 36.2392C94.9603 36.4458 87.8535 34.9132 81.913 31.6632C81.1173 31.2284 80.3325 30.761 79.5804 30.261C78.8937 30.7066 78.1961 31.1414 77.4767 31.5327C71.5362 34.8479 64.4076 36.4349 56.2217 36.2501" stroke="white" stroke-linejoin="round"/>
<path d="M92.9328 49.0979C89.6737 45.8479 84.3981 45.8479 81.1499 49.0979L79.5694 50.674L77.9889 49.0979C74.7298 45.8479 69.4542 45.8479 66.206 49.0979C62.9469 52.3479 62.9469 57.6088 66.206 60.8479L79.5912 74.1849L92.9328 60.8479C96.1919 57.5979 96.1919 52.337 92.9328 49.0979Z" fill="white"/>
<path d="M71.9395 83.1521H88.2895" stroke="white" stroke-width="3" stroke-miterlimit="10" stroke-dasharray="3 3"/>
</g>
<defs>
<linearGradient id="paint0_linear_120_2929" x1="30.0295" y1="-14.4565" x2="80.2398" y2="147.33" gradientUnits="userSpaceOnUse">
<stop stop-color="white"/>
<stop offset="1" stop-color="#C8D4FF"/>
</linearGradient>
<linearGradient id="paint1_linear_120_2929" x1="-57.77" y1="-2.7827" x2="79.9857" y2="101.936" gradientUnits="userSpaceOnUse">
<stop stop-color="#B8C4DB"/>
<stop offset="1" stop-color="#437AFF"/>
</linearGradient>
<clipPath id="clip0_120_2929">
<rect width="109" height="100" fill="white"/>
</clipPath>
</defs>
</svg>
