<svg width="40" height="40" viewBox="0 0 40 40" fill="none" xmlns="http://www.w3.org/2000/svg">
<path d="M6.33691 22.8887C7.71053 22.8887 8.82413 24.0024 8.82422 25.376V33.5127C8.82422 34.8864 7.71058 36 6.33691 36C4.9634 35.9998 3.84961 34.8863 3.84961 33.5127V25.376C3.8497 24.0025 4.96345 22.8889 6.33691 22.8887ZM15.6748 22.9268H26.46C26.6097 22.9268 26.6775 22.9628 26.7178 22.9932C26.7923 23.0495 26.8385 23.1101 26.8711 23.1846C26.8767 23.2213 26.8831 23.2755 26.8896 23.3477C26.9033 23.4974 26.914 23.688 26.9209 23.8877C26.9277 24.0861 26.931 24.2831 26.9297 24.4434L26.9219 24.6963C26.9208 24.704 26.9196 24.7265 26.8828 24.7686L26.832 24.8184L26.8242 24.8252L25.3691 26.1055C24.8214 26.5876 24.1164 26.8535 23.3867 26.8535H17.8643C16.8858 26.8536 16.081 27.5978 15.9844 28.5508L15.9746 28.7441L15.9844 28.9365C16.081 29.8895 16.8858 30.6337 17.8643 30.6338H23.9922C25.19 30.6337 26.3484 30.2028 27.2559 29.4209L30.0947 26.9746C30.538 26.598 31.0034 26.3385 31.4922 26.1826C31.9943 26.0226 32.5 25.9612 33.0156 25.9951C33.5332 26.0527 34.0222 26.1964 34.4873 26.4268C34.6127 26.4889 34.6773 26.5816 34.6816 26.7617C34.6867 26.9747 34.59 27.2601 34.3711 27.4883L27.7783 34.3574C27.2127 34.9468 26.4311 35.2801 25.6143 35.2803L15.6748 35.2822C14.018 35.2824 12.6751 33.939 12.6748 32.2822V25.9268C12.6748 24.2699 14.018 22.9268 15.6748 22.9268ZM19.499 4.51758C19.7216 5.30792 20.4202 5.87916 21.2275 5.97363C24.1641 6.31696 26.7123 7.52553 28.8994 9.62109C30.91 11.5476 32.2402 13.8777 32.8965 16.6338C33.1645 17.7589 34.015 18.7197 35.1543 19.0361L3.81836 19.0371C4.94626 18.722 5.78877 17.7707 6.05273 16.6553C6.70731 13.8882 8.03828 11.5503 10.0537 9.61914C12.2411 7.52318 14.8043 6.31321 17.7715 5.9707C18.5789 5.87744 19.2758 5.30682 19.499 4.51758Z" stroke="white" stroke-width="2"/>
</svg>
