<svg width="40" height="40" viewBox="0 0 40 40" fill="none" xmlns="http://www.w3.org/2000/svg">
<path d="M7.69371 37.9977C6.67733 37.9977 5.808 37.6371 5.08571 36.9158C4.36343 36.1945 4.00152 35.3297 4 34.3214V15.924C4 15.3409 4.13105 14.7889 4.39314 14.2681C4.65524 13.7472 5.01638 13.3182 5.47657 12.9811L17.7851 3.73799C18.4297 3.246 19.1657 3 19.9931 3C20.8206 3 21.5611 3.246 22.2149 3.73799L34.5234 12.9788C34.9851 13.316 35.3463 13.7457 35.6069 14.2681C35.869 14.7889 36 15.3409 36 15.924V34.3214C36 35.3327 35.6381 36.1983 34.9143 36.9181C34.1905 37.6378 33.3219 37.9985 32.3086 38L7.69371 37.9977ZM7.69371 35.72H32.3086C32.7185 35.72 33.0552 35.5886 33.3189 35.3259C33.5825 35.0632 33.7143 34.7276 33.7143 34.3191V15.9217C33.7143 15.6879 33.6632 15.4753 33.5611 15.2839C33.459 15.0926 33.3196 14.9256 33.1429 14.7828L20.8366 5.58297C20.6019 5.3795 20.323 5.27776 20 5.27776C19.677 5.27776 19.3989 5.3795 19.1657 5.58297L6.85714 14.7828C6.6819 14.9286 6.54248 15.0956 6.43886 15.2839C6.33524 15.4722 6.28419 15.6848 6.28571 15.9217V34.3191C6.28571 34.7276 6.41752 35.0632 6.68114 35.3259C6.94476 35.5886 7.28229 35.72 7.69371 35.72ZM17.0994 31.9526C17.3737 31.9526 17.6038 31.8607 17.7897 31.677C17.9726 31.4932 18.064 31.2639 18.064 30.9891V24.2446C18.8716 24.2446 19.5573 23.9637 20.1211 23.4019C20.685 22.84 20.9669 22.1567 20.9669 21.3519V16.5344C20.9669 16.2611 20.8747 16.0318 20.6903 15.8465C20.5059 15.6628 20.2758 15.5709 20 15.5709C19.7242 15.5709 19.4941 15.6628 19.3097 15.8465C19.1253 16.0303 19.0331 16.2596 19.0331 16.5344V21.3519H18.0663V16.5344C18.0663 16.2611 17.9741 16.0318 17.7897 15.8465C17.6053 15.6628 17.3752 15.5709 17.0994 15.5709C16.8236 15.5709 16.5935 15.6628 16.4091 15.8465C16.2248 16.0303 16.1326 16.2596 16.1326 16.5344V21.3519H15.1657V16.5344C15.1657 16.2611 15.0735 16.0318 14.8891 15.8465C14.7032 15.6628 14.4731 15.5709 14.1989 15.5709C13.9246 15.5709 13.6937 15.6628 13.5063 15.8465C13.3234 16.0303 13.232 16.2596 13.232 16.5344V21.3519C13.232 22.1567 13.5139 22.84 14.0777 23.4019C14.6415 23.9637 15.3265 24.2446 16.1326 24.2446V30.9891C16.1326 31.2624 16.224 31.4917 16.4069 31.677C16.5928 31.8607 16.8236 31.9526 17.0994 31.9526ZM25.5246 31.677C25.7105 31.4932 25.8034 31.2639 25.8034 30.9891V16.8214C25.8034 16.4691 25.6815 16.173 25.4377 15.9331C25.1939 15.6932 24.8922 15.5717 24.5326 15.5687C23.6533 15.5687 23.0004 15.9711 22.5737 16.7759C22.147 17.5792 21.9337 18.4622 21.9337 19.4249V23.3609C21.9337 23.8847 22.1219 24.2993 22.4983 24.6045C22.8762 24.9097 23.3029 25.1109 23.7783 25.2081H23.8697V30.9891C23.8697 31.2624 23.9611 31.4917 24.144 31.677C24.3299 31.8607 24.5608 31.9526 24.8366 31.9526C25.1109 31.9526 25.3402 31.8607 25.5246 31.677Z" fill="white"/>
</svg>
