<svg width="60" height="60" viewBox="0 0 60 60" fill="none" xmlns="http://www.w3.org/2000/svg">
<g clip-path="url(#clip0_76_2576)">
<path d="M34.9286 26C34.4171 26 33.9265 26.2239 33.5649 26.6224C33.2032 27.0209 33 27.5614 33 28.125V57.875C33 58.4386 33.2032 58.9791 33.5649 59.3776C33.9265 59.7761 34.4171 60 34.9286 60H58.0714C58.5829 60 59.0735 59.7761 59.4351 59.3776C59.7968 58.9791 60 58.4386 60 57.875V28.125C60 27.5614 59.7968 27.0209 59.4351 26.6224C59.0735 26.2239 58.5829 26 58.0714 26H34.9286Z" fill="#D3DEA5"/>
<path d="M24.3198 0.591833C23.9635 0.21193 23.4903 0 22.9981 0C22.5059 0 22.0326 0.21193 21.6764 0.591833L7.5938 15.5917C7.4061 15.7919 7.25669 16.0326 7.15462 16.2993C7.05255 16.566 6.99995 16.8531 7 17.1431V57.8572C7 58.4255 7.20181 58.9705 7.56103 59.3724C7.92025 59.7742 8.40746 60 8.91548 60H37.0845C37.5925 60 38.0797 59.7742 38.439 59.3724C38.7982 58.9705 39 58.4255 39 57.8572V17.1431C38.9996 16.8527 38.9464 16.5655 38.8436 16.2988C38.7409 16.0321 38.5908 15.7915 38.4024 15.5917L24.3198 0.591833Z" fill="#89A132"/>
<path fill-rule="evenodd" clip-rule="evenodd" d="M11.5542 0.0129395C7.91127 0.0129395 4.96038 2.92294 4.96038 6.51437V53.5758H3.33261C2.46688 53.5758 1.6366 53.9144 1.02444 54.5172C0.412271 55.12 0.0683594 55.9376 0.0683594 56.7901C0.0683594 57.6426 0.412271 58.4601 1.02444 59.0629C1.6366 59.6657 2.46688 60.0044 3.33261 60.0044H26.9136C26.8131 59.5394 26.7621 59.0654 26.7612 58.5901C26.7612 51.6858 30.4085 45.6172 35.9011 42.1544C34.5868 40.6511 33.6161 38.8871 33.055 36.9819C32.4938 35.0768 32.3553 33.0751 32.6488 31.1127C32.9423 29.1502 33.6609 27.2728 34.756 25.6078C35.8511 23.9429 37.297 22.5293 38.9956 21.4629L39 6.51437C39 2.92722 36.0491 0.0172252 32.4062 0.0172252H11.5585L11.5542 0.0129395Z" fill="#89A132"/>
<path fill-rule="evenodd" clip-rule="evenodd" d="M4.96045 24.0945H23.8801C24.6015 24.0945 25.2934 23.8123 25.8035 23.3099C26.3137 22.8076 26.6003 22.1263 26.6003 21.4159C26.6003 20.7055 26.3137 20.0242 25.8035 19.5219C25.2934 19.0195 24.6015 18.7373 23.8801 18.7373H4.96045V24.0945ZM4.96045 12.9516H16.8249C17.5464 12.9516 18.2383 12.6694 18.7484 12.1671C19.2585 11.6648 19.5451 10.9835 19.5451 10.2731C19.5451 9.56265 19.2585 8.88135 18.7484 8.37902C18.2383 7.87669 17.5464 7.59448 16.8249 7.59448H4.96045V12.9516Z" fill="#D3DEA5"/>
<path fill-rule="evenodd" clip-rule="evenodd" d="M45.0277 30C44.4899 30 43.9742 30.2048 43.5939 30.5694C43.2136 30.934 43 31.4284 43 31.944C43 32.4596 43.2136 32.9541 43.5939 33.3186C43.9742 33.6832 44.4899 33.888 45.0277 33.888H53.9723C54.5101 33.888 55.0258 33.6832 55.4061 33.3186C55.7864 32.9541 56 32.4596 56 31.944C56 31.4284 55.7864 30.934 55.4061 30.5694C55.0258 30.2048 54.5101 30 53.9723 30H45.0277ZM45.0277 38.112C44.4899 38.112 43.9742 38.3168 43.5939 38.6814C43.2136 39.0459 43 39.5404 43 40.056C43 40.5716 43.2136 41.066 43.5939 41.4306C43.9742 41.7952 44.4899 42 45.0277 42H53.9723C54.5101 42 55.0258 41.7952 55.4061 41.4306C55.7864 41.066 56 40.5716 56 40.056C56 39.5404 55.7864 39.0459 55.4061 38.6814C55.0258 38.3168 54.5101 38.112 53.9723 38.112H45.0277Z" fill="#89A132"/>
<path d="M43.5939 30.5694C43.9742 30.2048 44.4899 30 45.0277 30H53.9723C54.5101 30 55.0258 30.2048 55.4061 30.5694C55.7864 30.934 56 31.4284 56 31.944C56 32.4596 55.7864 32.9541 55.4061 33.3186C55.0258 33.6832 54.5101 33.888 53.9723 33.888H45.0277C44.4899 33.888 43.9742 33.6832 43.5939 33.3186C43.2136 32.9541 43 32.4596 43 31.944C43 31.4284 43.2136 30.934 43.5939 30.5694Z" fill="#89A132"/>
<path d="M43.5939 38.6814C43.9742 38.3168 44.4899 38.112 45.0277 38.112H53.9723C54.5101 38.112 55.0258 38.3168 55.4061 38.6814C55.7864 39.0459 56 39.5404 56 40.056C56 40.5716 55.7864 41.066 55.4061 41.4306C55.0258 41.7952 54.5101 42 53.9723 42H45.0277C44.4899 42 43.9742 41.7952 43.5939 41.4306C43.2136 41.066 43 40.5716 43 40.056C43 39.5404 43.2136 39.0459 43.5939 38.6814Z" fill="#89A132"/>
</g>
<defs>
<clipPath id="clip0_76_2576">
<rect width="60" height="60" fill="white"/>
</clipPath>
</defs>
</svg>
