<svg width="60" height="60" viewBox="0 0 60 60" fill="none" xmlns="http://www.w3.org/2000/svg">
<g clip-path="url(#clip0_76_2561)">
<path d="M6.4285 18.9944C5.86018 18.9944 5.31514 19.2201 4.91327 19.622C4.51141 20.0239 4.28564 20.5689 4.28564 21.1372V55.7144C4.28564 56.851 4.73717 57.9411 5.5409 58.7448C6.34463 59.5486 7.43472 60.0001 8.57136 60.0001H51.4285C52.5651 60.0001 53.6552 59.5486 54.459 58.7448C55.2627 57.9411 55.7142 56.851 55.7142 55.7144V21.1372C55.7142 20.5689 55.4885 20.0239 55.0866 19.622C54.6847 19.2201 54.1397 18.9944 53.5714 18.9944H6.4285Z" fill="#D3DEA5"/>
<path fill-rule="evenodd" clip-rule="evenodd" d="M6.63 1.23429C6.80277 0.865255 7.07717 0.553132 7.42103 0.334518C7.76489 0.115904 8.16396 -0.000137515 8.57143 1.22297e-07H51.4286C51.836 -0.000137515 52.2351 0.115904 52.579 0.334518C52.9228 0.553132 53.1972 0.865255 53.37 1.23429L59.7986 14.9871C59.9562 15.3256 60.0227 15.6994 59.9914 16.0714H60V20.1214C60 22.3671 59.0314 24.5186 57.3 26.1043C55.5144 27.7123 53.1928 28.5957 50.79 28.5814H49.6371C47.2343 28.5957 44.9127 27.7123 43.1271 26.1043C42.4587 25.4919 41.8917 24.7773 41.4471 23.9871C40.9329 23.1729 39.9514 23.1514 39.39 24.03C38.9614 24.7929 38.4086 25.4843 37.7314 26.1043C35.9448 27.7133 33.6215 28.5967 31.2171 28.5814H28.92C26.5157 28.5967 24.1924 27.7133 22.4057 26.1043C21.7041 25.4606 21.1146 24.7046 20.6614 23.8671C20.1471 23.2029 19.2686 23.1986 18.7243 23.9271C18.2747 24.741 17.6957 25.4764 17.01 26.1043C15.2233 27.7133 12.9 28.5967 10.4957 28.5814H9.21C6.80568 28.5967 4.48238 27.7133 2.69571 26.1043C1.85594 25.3486 1.18259 24.4264 0.718502 23.3964C0.25441 22.3664 0.00972275 21.2511 0 20.1214L0 16.0714H0.00857143C-0.0227033 15.6994 0.043778 15.3256 0.201429 14.9871L6.63 1.23429Z" fill="#89A132"/>
<path d="M10.7227 43.9713V38.5713C10.7227 38.003 10.9484 37.458 11.3503 37.0561C11.7521 36.6542 12.2972 36.4285 12.8655 36.4285H25.7827C26.351 36.4285 26.896 36.6542 27.2979 37.0561C27.6998 37.458 27.9255 38.003 27.9255 38.5713V43.9713C27.9255 44.5396 27.6998 45.0847 27.2979 45.4866C26.896 45.8884 26.351 46.1142 25.7827 46.1142H12.8655C12.2972 46.1142 11.7521 45.8884 11.3503 45.4866C10.9484 45.0847 10.7227 44.5396 10.7227 43.9713ZM46.0498 59.9999V42.6813C46.0495 42.5551 46.0226 42.4303 45.9709 42.3151C45.9192 42.1999 45.8439 42.0969 45.7498 42.0128C45.5499 41.8332 45.2899 41.7353 45.0212 41.7385H36.4841C36.2154 41.7353 35.9554 41.8332 35.7555 42.0128C35.6614 42.0969 35.5861 42.1999 35.5344 42.3151C35.4827 42.4303 35.4558 42.5551 35.4555 42.6813V59.9999" fill="#89A132"/>
</g>
<defs>
<clipPath id="clip0_76_2561">
<rect width="60" height="60" fill="white"/>
</clipPath>
</defs>
</svg>
