<svg width="60" height="60" viewBox="0 0 60 60" fill="none" xmlns="http://www.w3.org/2000/svg">
<path d="M55.0544 55.093V26.8887H4.9458V55.093C4.9458 56.2296 5.39733 57.3197 6.20106 58.1234C7.00478 58.9271 8.09487 59.3787 9.23151 59.3787H50.7687C51.9053 59.3787 52.9954 58.9271 53.7991 58.1234C54.6028 57.3197 55.0544 56.2296 55.0544 55.093Z" fill="#D3DEA5"/>
<path fill-rule="evenodd" clip-rule="evenodd" d="M14.7858 14.5328H25.5258C25.106 13.6778 24.6158 12.8593 24.0601 12.0857C22.2001 9.5057 20.0101 8.05284 17.8801 8.05284C15.5443 8.05284 14.5801 8.72141 14.1901 9.15427C13.7701 9.6257 13.4958 10.3843 13.5901 11.4814C13.6886 12.5871 14.1515 13.7228 14.7815 14.5328H14.7858ZM7.68006 14.5328C7.43432 13.7225 7.26924 12.8899 7.1872 12.0471C6.98149 9.68141 7.49149 6.98141 9.41578 4.84712C11.3658 2.69141 14.3015 1.62855 17.8801 1.62855C23.0229 1.62855 26.8929 5.02284 29.2758 8.33141C29.5272 8.67998 29.7686 9.03712 30.0001 9.40284C30.2286 9.03712 30.4715 8.67998 30.7286 8.33141C33.1029 5.01427 36.9772 1.62427 42.1158 1.62427C45.6986 1.62427 48.6301 2.68712 50.5801 4.85141C52.5001 6.98141 53.0143 9.68141 52.8086 12.0514C52.7266 12.8942 52.5615 13.7268 52.3158 14.5371H54.8615C55.9981 14.5371 57.0882 14.9887 57.8919 15.7924C58.6957 16.5961 59.1472 17.6862 59.1472 18.8228V22.5986C59.1472 23.7352 58.6957 24.8253 57.8919 25.629C57.0882 26.4327 55.9981 26.8843 54.8615 26.8843H32.6786V59.3786H27.3215V26.8843H5.13435C3.9977 26.8843 2.90762 26.4327 2.10389 25.629C1.30016 24.8253 0.848633 23.7352 0.848633 22.5986V18.8186C0.848633 17.6819 1.30016 16.5918 2.10389 15.7881C2.90762 14.9844 3.9977 14.5328 5.13435 14.5328H7.68006ZM45.2186 14.5328C45.8896 13.6454 46.3006 12.5889 46.4058 11.4814C46.5043 10.3843 46.2343 9.62141 45.8101 9.15427C45.4201 8.72141 44.4558 8.05284 42.1201 8.05284C39.9901 8.05284 37.8001 9.50998 35.9401 12.0814C35.3529 12.8957 34.8686 13.7357 34.4743 14.5328H45.2186Z" fill="#89A132"/>
</svg>
