<svg width="60" height="60" viewBox="0 0 60 60" fill="none" xmlns="http://www.w3.org/2000/svg">
<g clip-path="url(#clip0_76_2570)">
<path fill-rule="evenodd" clip-rule="evenodd" d="M0.527344 31.2257V8.57143C0.527344 3.83571 9.15877 0 19.8131 0C30.4631 0 39.0988 3.83571 39.0988 8.57143V14.8714C33.8016 15.0471 28.8259 16.0714 24.9002 17.82C22.7488 18.7757 20.6745 20.0571 19.0631 21.7457C17.4302 23.4643 16.0716 25.8471 16.0716 28.7743V39.6343C7.1702 38.8629 0.527344 35.3743 0.527344 31.2257Z" fill="#D3DEA5"/>
<path fill-rule="evenodd" clip-rule="evenodd" d="M21.4287 28.7743V51.4286C21.4287 56.1429 30.0001 60 40.7144 60C51.4287 60 60.0001 56.1429 60.0001 51.4286V28.7743C60.0001 24.0429 51.3644 20.2029 40.7144 20.2029C30.0644 20.2029 21.4287 24.0429 21.4287 28.7743Z" fill="#D3DEA5"/>
<path fill-rule="evenodd" clip-rule="evenodd" d="M60.0001 36.5957C59.8262 37.1647 59.5071 37.6787 59.0744 38.0871C58.2815 38.9228 57.0087 39.8014 55.2258 40.5985C51.6687 42.1843 46.5472 43.2385 40.7144 43.2385C34.8815 43.2385 29.7644 42.1843 26.2029 40.5985C24.4201 39.8014 23.1472 38.9271 22.3544 38.0871C21.9222 37.6799 21.6033 37.1675 21.4287 36.6V44.1343C22.2372 44.6314 23.1015 45.0843 24.0215 45.4928C28.4144 47.4557 34.3072 48.6 40.7144 48.6C47.1172 48.6 53.0144 47.4557 57.4072 45.4928C58.3272 45.0871 59.1915 44.6343 60.0001 44.1343V36.5957ZM18.0172 23.0014C16.8794 24.5309 16.2095 26.3575 16.0887 28.26C11.1344 27.9085 6.64295 26.8585 3.11152 25.2857C2.21874 24.8923 1.35387 24.4384 0.522949 23.9271V16.3928C0.695654 16.9614 1.01318 17.4754 1.44438 17.8843C2.23723 18.72 3.51438 19.5985 5.29723 20.3914C8.48581 21.8143 12.9258 22.8128 18.0129 23.0057L18.0172 23.0014Z" fill="#89A132"/>
<path d="M19.8085 12.5614C27.2485 12.5614 33.2785 10.83 33.2785 8.69142C33.2785 6.54857 27.2485 4.81714 19.8085 4.81714C12.3685 4.81714 6.34277 6.55285 6.34277 8.69142C6.34277 10.83 12.3728 12.5614 19.8085 12.5614ZM40.7142 32.7686C48.1499 32.7686 54.1799 31.0329 54.1799 28.8943C54.1799 26.7557 48.1499 25.02 40.7142 25.02C33.2742 25.02 27.2485 26.7557 27.2485 28.8943C27.2485 31.0371 33.2742 32.7686 40.7142 32.7686Z" fill="#89A132"/>
</g>
<defs>
<clipPath id="clip0_76_2570">
<rect width="60" height="60" fill="white"/>
</clipPath>
</defs>
</svg>
